<svg xmlns="http://www.w3.org/2000/svg" viewBox="0 0 858.63 219.98"><defs><style>.cls-1{fill:#282828;}.cls-2{fill:#ff8500;}</style></defs><g id="Layer_2" data-name="Layer 2"><g id="Layer_1-2" data-name="Layer 1"><path class="cls-1" d="M52,.27V11.65a54.58,54.58,0,0,0-6.35-.34c-22.45,0-34.31,15.06-34.31,43.55V83.79H32.14V94.46H11.3V219.33H0V53.57C0,35.25,4.75,20.81,13.73,11.82,21.57,4,32.29,0,45.61,0,47.93,0,50,.09,52,.27"/><rect class="cls-1" x="584.65" y="0.71" width="11.3" height="219.12"/><path class="cls-1" d="M683.59,29.46A17.64,17.64,0,1,1,711.41,7.77l50,64c.38.49.81,1,1.23,1.45a37,37,0,0,0-28,21.83,13,13,0,0,0-1.07-1.58Z"/><path class="cls-1" d="M854.87,191.39a17.64,17.64,0,1,1-27.78,21.74l-50-64a15.38,15.38,0,0,0-2.85-2.85A37,37,0,0,0,802.77,124a17.78,17.78,0,0,0,2.08,3.38Z"/><path class="cls-1" d="M763.92,146.52a16.33,16.33,0,0,0-2.48,2.57l-50,64a17.65,17.65,0,0,1-27.82-21.74l50-64a17.19,17.19,0,0,0,1.33-2,36.91,36.91,0,0,0,29,21.11"/><path class="cls-1" d="M775.46,73.56a15.86,15.86,0,0,0,1.61-1.76l50-64a17.62,17.62,0,1,1,27.77,21.7l-50,64a16.83,16.83,0,0,0-1.87,3,37,37,0,0,0-27.52-22.92"/><path class="cls-2" d="M792.5,110.43a23.26,23.26,0,1,1-23.26-23.25,23.26,23.26,0,0,1,23.26,23.25"/><path class="cls-1" d="M130.82,82.93c-38.78,0-68,29.46-68,68.53v.5c0,38.78,29.24,68,68,68s68-29.45,68-68.52V151c0-38.78-29.25-68-68-68M188,151.21v.5c0,33-24.47,57.91-56.91,57.91-32.19,0-57.41-25.44-57.41-57.91v-.5c0-33,24.46-57.91,56.9-57.91,32.2,0,57.42,25.44,57.42,57.91"/><path class="cls-1" d="M519.65,97.8c-9.73-9.73-23.95-14.66-42.26-14.66-15.33,0-29.31,3.51-45.33,11.38l-2.29,1.13,4.18,9.4,2.47-1.19c14.86-7.15,27.42-10.34,40.72-10.34,29.45,0,45,14.61,45,42.25v6.87a152.37,152.37,0,0,0-44.77-6.77c-35.79,0-58.93,16.8-58.93,42.78v.51c0,27.84,25.84,40.51,49.85,40.51,26.67,0,45-12.51,53.85-24.86V220h10.63V135.51c0-16.07-4.54-29.11-13.14-37.71m2.51,55.72v14.29c0,19.95-20.49,41.48-53.6,41.48-18.09,0-39.21-7.95-39.21-30.38v-.51c0-23.7,24.95-32.14,48.3-32.14,16.6,0,30.76,2.31,44.51,7.26"/><path class="cls-1" d="M317.38,93.5A54.9,54.9,0,0,1,350.25,104l.18.13h16.18L365.4,103c-8.81-8.51-23.36-19.84-47.78-19.84-36.89,0-66.92,30.58-66.92,68.16v.48c0,37.61,29.92,68.2,66.68,68.2,18.59,0,34.29-6.58,48-20.12l1.17-1.16H350.47l-.18.13a53.32,53.32,0,0,1-32.67,10.76c-30.9,0-56-26-56-58.05v-.48c0-32.28,24.51-57.56,55.8-57.56"/></g></g></svg>