<svg width="75" height="19" viewBox="0 0 75 19" fill="none" xmlns="http://www.w3.org/2000/svg">
<g clip-path="url(#clip0_3_3)">
<path d="M4.54212 0.0233203V1.00623C4.35797 0.985788 4.17276 0.975983 3.98746 0.976862C2.02648 0.976862 0.990532 2.27762 0.990532 4.73834V7.23707H2.80738V8.15865H0.987038V18.9439H0V4.62692C0 3.0446 0.414905 1.79739 1.19929 1.02091C1.88411 0.345486 2.82048 0 3.98396 0C4.18661 0 4.36742 0.00777343 4.54212 0.0233203Z" fill="#282828"/>
<path d="M52.0553 0.0613098H51.0683V18.987H52.0553V0.0613098Z" fill="#282828"/>
<path d="M59.7105 2.54451C59.5826 2.38708 59.4876 2.20606 59.431 2.01199C59.3745 1.81792 59.3575 1.61466 59.3811 1.41405C59.4047 1.21343 59.4684 1.01946 59.5685 0.843409C59.6686 0.667359 59.8031 0.512747 59.9642 0.388564C60.1253 0.26438 60.3097 0.173105 60.5068 0.120045C60.7039 0.0669858 60.9097 0.0532013 61.1122 0.0794934C61.3147 0.105786 61.5099 0.17163 61.6865 0.273196C61.863 0.374763 62.0174 0.510025 62.1406 0.671116L66.508 6.19889C66.5412 6.24121 66.5787 6.28526 66.6154 6.32413C66.0806 6.41045 65.5763 6.62837 65.1489 6.95785C64.7215 7.28733 64.3848 7.71778 64.1697 8.20962C64.1419 8.16193 64.1107 8.11632 64.0762 8.07315L59.7105 2.54451Z" fill="#282828"/>
<path d="M74.6716 16.5306C74.8001 16.6878 74.8958 16.8687 74.9529 17.0628C75.0101 17.2568 75.0276 17.4602 75.0045 17.6611C74.9814 17.8619 74.9181 18.0562 74.8183 18.2326C74.7185 18.4091 74.5842 18.5641 74.4232 18.6887C74.2622 18.8132 74.0777 18.9049 73.8806 18.9583C73.6834 19.0117 73.4774 19.0257 73.2747 18.9996C73.072 18.9736 72.8766 18.9078 72.6998 18.8063C72.523 18.7048 72.3684 18.5695 72.245 18.4083L67.8776 12.8806C67.8059 12.7881 67.7222 12.7053 67.6287 12.6344C68.176 12.5516 68.6926 12.3311 69.1289 11.9942C69.5653 11.6572 69.9068 11.215 70.1207 10.7101C70.1701 10.8138 70.231 10.9117 70.3024 11.002L74.6716 16.5306Z" fill="#282828"/>
<path d="M66.7272 12.6551C66.647 12.7211 66.5744 12.7955 66.5106 12.8771L62.1432 18.4049C61.8914 18.7235 61.5219 18.9302 61.1159 18.9794C60.71 19.0287 60.3009 18.9165 59.9787 18.6675C59.6564 18.4185 59.4474 18.0531 59.3976 17.6517C59.3478 17.2503 59.4613 16.8458 59.7131 16.5272L64.0806 10.9994C64.1233 10.9446 64.1621 10.8868 64.1967 10.8267C64.4274 11.3185 64.781 11.744 65.2242 12.063C65.6675 12.3821 66.1857 12.5841 66.7299 12.65" fill="#282828"/>
<path d="M67.7352 6.35349C67.7859 6.30638 67.8329 6.25556 67.8759 6.20147L72.2433 0.673698C72.3677 0.516207 72.5224 0.384499 72.6983 0.286092C72.8742 0.187686 73.068 0.124508 73.2687 0.100166C73.4693 0.0758244 73.6728 0.0907955 73.8676 0.144225C74.0624 0.197654 74.2446 0.288494 74.4038 0.41156C74.5631 0.534626 74.6963 0.687507 74.7958 0.861473C74.8954 1.03544 74.9593 1.22709 74.9839 1.42547C75.0085 1.62385 74.9933 1.82509 74.9393 2.01768C74.8853 2.21028 74.7934 2.39047 74.669 2.54796L70.3015 8.07573C70.238 8.1562 70.1833 8.24305 70.1382 8.33485C69.9397 7.83065 69.6151 7.38452 69.1946 7.03827C68.7742 6.69203 68.2717 6.457 67.7344 6.35521" fill="#282828"/>
<path d="M69.2236 9.53801C69.2238 9.93539 69.1048 10.3239 68.8817 10.6544C68.6585 10.9849 68.3413 11.2425 67.97 11.3947C67.5988 11.5469 67.1902 11.5868 66.7961 11.5094C66.4019 11.432 66.0398 11.2407 65.7556 10.9598C65.4713 10.6788 65.2778 10.3209 65.1993 9.93113C65.1208 9.5414 65.161 9.13741 65.3148 8.77027C65.4685 8.40312 65.7289 8.0893 66.0631 7.86851C66.3972 7.64772 66.79 7.52988 67.1919 7.52988C67.7306 7.52988 68.2473 7.74142 68.6282 8.11799C69.0092 8.49457 69.2234 9.00534 69.2236 9.53801Z" fill="#FF8500"/>
<path d="M11.4269 7.16278C8.03955 7.16278 5.48723 9.70729 5.48723 13.0818V13.125C5.48723 16.4745 8.0413 18.9983 11.4269 18.9983C14.8125 18.9983 17.3666 16.4546 17.3666 13.0801V13.0421C17.3666 9.6926 14.8117 7.16883 11.4269 7.16883V7.16278ZM16.4215 13.0602V13.1034C16.4215 15.9537 14.2841 18.1052 11.4505 18.1052C8.63876 18.1052 6.43583 15.9079 6.43583 13.1034V13.0602C6.43583 10.21 8.57238 8.05845 11.406 8.05845C14.2186 8.05845 16.4215 10.2557 16.4215 13.0602Z" fill="#282828"/>
<path d="M45.3906 8.44715C44.5407 7.60675 43.2986 7.18094 41.6993 7.18094C40.3602 7.18094 39.1391 7.4841 37.7398 8.16385L37.5397 8.26145L37.9049 9.07334L38.1206 8.97056C39.4186 8.353 40.5157 8.07747 41.6774 8.07747C44.2498 8.07747 45.6081 9.33936 45.6081 11.7267V12.32C44.3413 11.9336 43.0232 11.7365 41.6975 11.7353C38.5713 11.7353 36.5501 13.1863 36.5501 15.4303V15.4743C36.5501 17.8789 38.8072 18.9732 40.9044 18.9732C43.234 18.9732 44.8351 17.8927 45.6081 16.826V19.0017H46.5366V11.7042C46.5366 10.3162 46.1401 9.18994 45.3889 8.44715H45.3906ZM45.6081 13.2598V14.494C45.6081 16.2171 43.8183 18.0767 40.9262 18.0767C39.3461 18.0767 37.5013 17.39 37.5013 15.4527V15.4087C37.5013 13.3617 39.6806 12.6327 41.7202 12.6327C43.1702 12.6327 44.4071 12.8322 45.6081 13.2598Z" fill="#282828"/>
<path d="M27.7227 8.07573C28.7534 8.06504 29.7602 8.38305 30.5938 8.98263L30.6095 8.99386H32.0228L31.9171 8.89626C31.1476 8.16124 29.8767 7.18265 27.7436 7.18265C24.5213 7.18265 21.8983 9.82389 21.8983 13.0697V13.1112C21.8983 16.3596 24.5117 19.0017 27.7227 19.0017C29.3465 19.0017 30.7178 18.4334 31.9154 17.2639L32.0176 17.1637H30.613L30.5973 17.175C29.776 17.788 28.7725 18.1148 27.7436 18.1043C25.0445 18.1043 22.8521 15.8587 22.8521 13.0905V13.049C22.8521 10.2609 24.993 8.07746 27.7261 8.07746" fill="#282828"/>
</g>
<defs>
<clipPath id="clip0_3_3">
<rect width="75" height="19" fill="white"/>
</clipPath>
</defs>
</svg>
